<svg width="500" height="500" viewBox="0 0 500 500" fill="none" xmlns="http://www.w3.org/2000/svg">
<rect x="216" y="240" width="68.2139" height="128.131" rx="13.7769" fill="white" stroke="#323232" stroke-width="4" stroke-linecap="round"/>
<path d="M217.896 322.634V281.678H286.5C281.333 302.68 250.523 323.768 217.896 322.634Z" fill="#7E7E7E" fill-opacity="0.45"/>
<path d="M184 211.678C197.45 211.678 208 221.49 208 233.178C208 244.867 197.45 254.678 184 254.678C170.55 254.678 160 244.867 160 233.178C160 221.49 170.55 211.678 184 211.678Z" fill="white" stroke="#323232" stroke-width="4"/>
<path d="M315 211.678C301.55 211.678 291 221.49 291 233.178C291 244.867 301.55 254.678 315 254.678C328.45 254.678 339 244.867 339 233.178C339 221.49 328.45 211.678 315 211.678Z" fill="white" stroke="#323232" stroke-width="4"/>
<path d="M250.03 133C271.043 133 287.473 144.893 298.74 162.611C310.026 180.358 316 203.787 316 226.262C316 248.713 310.042 265.834 298.985 277.337C287.941 288.828 271.532 295 250.03 295C228.527 295 211.842 288.826 200.528 277.32C189.211 265.81 183 248.69 183 226.262C183 203.804 189.232 180.379 200.779 162.629C212.311 144.903 229.009 133 250.03 133Z" fill="white" stroke="#323232" stroke-width="4" stroke-linecap="round"/>
<path d="M250 227C248.029 233.812 247 237.371 247 244.458C249.64 245.72 252.163 246.036 256.5 246" stroke="#323232" stroke-width="4" stroke-linecap="round" stroke-linejoin="round"/>
<path d="M214.768 218.178C216.829 218.178 218.657 219.293 219.953 221.021C221.249 222.748 222.035 225.112 222.035 227.702C222.035 230.291 221.249 232.655 219.953 234.382C218.657 236.11 216.829 237.225 214.768 237.225C212.706 237.225 210.878 236.11 209.582 234.382C208.286 232.655 207.5 230.291 207.5 227.702C207.5 225.112 208.286 222.748 209.582 221.021C210.878 219.293 212.706 218.178 214.768 218.178Z" fill="#323232" stroke="#323232" stroke-linecap="round"/>
<circle cx="217.616" cy="225.487" r="2.5" fill="white" stroke="#323232"/>
<path d="M286.768 218.178C288.829 218.178 290.657 219.293 291.953 221.021C293.249 222.748 294.035 225.112 294.035 227.702C294.035 230.291 293.249 232.655 291.953 234.382C290.657 236.11 288.829 237.225 286.768 237.225C284.706 237.225 282.878 236.11 281.582 234.382C280.286 232.655 279.5 230.291 279.5 227.702C279.5 225.112 280.286 222.748 281.582 221.021C282.878 219.293 284.706 218.178 286.768 218.178Z" fill="#323232" stroke="#323232" stroke-linecap="round"/>
<circle cx="289.616" cy="225.487" r="2" fill="white"/>
<path d="M241 261C244 264.667 251.8 269.8 259 261" stroke="#323232" stroke-width="4" stroke-linecap="round" stroke-linejoin="round"/>
<path d="M220 273.494C220 262.728 228.728 254 239.494 254H260.506C271.272 254 280 262.728 280 273.494V273.494C280 275.036 279.15 276.453 277.789 277.179L276.029 278.118C273.824 279.294 271.176 279.294 268.971 278.118L268.75 278C266.406 276.75 263.594 276.75 261.25 278V278C258.906 279.25 256.094 279.25 253.75 278V278C251.406 276.75 248.594 276.75 246.25 278V278C243.906 279.25 241.094 279.25 238.75 278V278C236.406 276.75 233.594 276.75 231.25 278L231.029 278.118C228.824 279.294 226.176 279.294 223.971 278.118L222.211 277.179C220.85 276.453 220 275.036 220 273.494V273.494Z" fill="#323232"/>
<path d="M182 216V173C182 146.49 203.49 125 230 125H268.528C294.83 125 316.234 146.168 316.525 172.469L317 215.445C313.396 202.923 309.715 194.88 302.059 187.599C294.893 180.783 283.862 182.057 275.413 187.198C256.229 198.871 241.562 199.611 222.613 188.41C213.288 182.897 200.91 181.843 194.313 190.435C188.977 197.385 185.899 205.132 182 216Z" fill="#323232"/>
<g filter="url(#filter0_f_2213_1435)">
<ellipse cx="209.5" cy="260.5" rx="9.5" ry="5.5" fill="#FC9D80"/>
</g>
<g filter="url(#filter1_f_2213_1435)">
<ellipse cx="288.5" cy="260.5" rx="9.5" ry="5.5" fill="#FC9D80"/>
</g>
<defs>
<filter id="filter0_f_2213_1435" x="188" y="243" width="43" height="35" filterUnits="userSpaceOnUse" color-interpolation-filters="sRGB">
<feFlood flood-opacity="0" result="BackgroundImageFix"/>
<feBlend mode="normal" in="SourceGraphic" in2="BackgroundImageFix" result="shape"/>
<feGaussianBlur stdDeviation="6" result="effect1_foregroundBlur_2213_1435"/>
</filter>
<filter id="filter1_f_2213_1435" x="267" y="243" width="43" height="35" filterUnits="userSpaceOnUse" color-interpolation-filters="sRGB">
<feFlood flood-opacity="0" result="BackgroundImageFix"/>
<feBlend mode="normal" in="SourceGraphic" in2="BackgroundImageFix" result="shape"/>
<feGaussianBlur stdDeviation="6" result="effect1_foregroundBlur_2213_1435"/>
</filter>
</defs>
</svg>
