<svg width="500" height="500" viewBox="0 0 500 500" fill="none" xmlns="http://www.w3.org/2000/svg">
<path d="M259.215 64.5054C271.766 62.4459 282.104 67.1689 286.888 69.9593C288.672 70.9993 290.934 71.121 292.887 70.4528C297.217 68.9713 305.539 67.5568 314.671 73.5444C320.601 77.4326 323.374 81.5515 324.626 84.9251C325.857 88.2415 329.233 91.9154 332.75 92.2938C340.977 93.1788 354.469 96.9321 364.624 111.128C372.85 122.629 373.307 133.668 371.889 141.554C371.092 145.987 375.902 153.805 379.199 156.873C380.935 158.489 382.642 160.759 384.129 163.935C387.268 170.639 387.839 175.614 387.631 178.902C387.456 181.668 388.374 184.99 390.253 187.026C393.705 190.765 398.222 197.923 397.926 209.607C397.649 220.507 393.826 226.614 390.669 229.819C388.66 231.858 387.414 235.169 387.772 238.009C388.373 242.772 387.818 250.377 381.274 258.608C376.632 264.447 371.652 266.807 367.464 267.591C363.415 268.35 358.522 272.711 357.923 276.786C357.265 281.269 355.307 286.363 350.352 290.007C342.884 295.498 333.979 294.555 329.078 293.403C326.862 292.882 324.444 293.575 322.99 295.327C313.837 306.36 304.893 309.843 283.955 308.182C283.199 308.122 282.458 307.883 281.807 307.494L261.519 295.36C260.08 294.499 258.305 294.417 256.793 295.142L224.373 310.668C223.995 310.848 223.593 310.983 223.182 311.059C214.932 312.593 208.016 311.816 204.631 307.329C202.367 304.329 198.235 301.359 194.517 301.905C190.477 302.499 185.39 302.31 180.511 299.522C175.821 296.842 172.742 293.409 170.771 290.435C168.818 287.488 164.319 285.902 160.912 286.847C155.532 288.34 147.715 288.393 140.549 280.493C135.819 275.278 134.162 270.848 133.933 267.353C133.666 263.28 131.52 256.624 128.374 254.024C124.816 251.084 121.519 246.292 121.519 238.627C121.519 231.363 123.511 226.123 125.755 222.525C127.843 219.179 127.654 213.018 125.39 209.789C122.406 205.535 119.874 198.871 121.52 189.15C123.643 176.604 129.379 170.278 133.255 167.34C135.271 165.812 136.654 163.24 136.402 160.722C135.681 153.52 135.741 138.859 145.782 127.779C154.964 117.647 166.055 114.245 172.474 113.103C175.322 112.596 177.674 110.066 178.057 107.199C179.011 100.063 182.838 87.7535 197.638 83.0591C210.847 78.8691 220.875 81.3926 226.612 83.9346C229.563 85.2421 233.517 84.3485 235.359 81.6982C239.571 75.6368 247.725 66.3908 259.215 64.5054Z" fill="#323232"/>
<rect x="216" y="240" width="68.2139" height="128.131" rx="13.7769" fill="white" stroke="#323232" stroke-width="4" stroke-linecap="round"/>
<path d="M217.896 322.634V281.678H286.5C281.333 302.68 250.523 323.768 217.896 322.634Z" fill="#7E7E7E" fill-opacity="0.45"/>
<path d="M182 216C195.45 216 206 225.811 206 237.5C206 249.189 195.45 259 182 259C168.55 259 158 249.189 158 237.5C158 225.811 168.55 216 182 216Z" fill="white" stroke="#323232" stroke-width="4"/>
<path d="M317 216C303.55 216 293 225.811 293 237.5C293 249.189 303.55 259 317 259C330.45 259 341 249.189 341 237.5C341 225.811 330.45 216 317 216Z" fill="white" stroke="#323232" stroke-width="4"/>
<path d="M250.03 134C271.043 134 287.473 145.893 298.74 163.611C310.026 181.358 316 204.787 316 227.262C316 249.713 310.042 266.834 298.985 278.337C287.941 289.828 271.532 296 250.03 296C228.527 296 211.842 289.826 200.528 278.32C189.211 266.81 183 249.69 183 227.262C183 204.804 189.232 181.379 200.779 163.629C212.311 145.903 229.009 134 250.03 134Z" fill="white" stroke="#323232" stroke-width="4" stroke-linecap="round"/>
<path d="M250 226C248.029 232.812 247 236.371 247 243.458C249.64 244.72 252.163 245.036 256.5 245" stroke="#323232" stroke-width="4" stroke-linecap="round" stroke-linejoin="round"/>
<path d="M214.768 218.178C216.829 218.178 218.657 219.293 219.953 221.021C221.249 222.748 222.035 225.112 222.035 227.702C222.035 230.291 221.249 232.655 219.953 234.382C218.657 236.11 216.829 237.225 214.768 237.225C212.706 237.225 210.878 236.11 209.582 234.382C208.286 232.655 207.5 230.291 207.5 227.702C207.5 225.112 208.286 222.748 209.582 221.021C210.878 219.293 212.706 218.178 214.768 218.178Z" fill="#323232" stroke="#323232" stroke-linecap="round"/>
<circle cx="217.616" cy="225.487" r="2.5" fill="white" stroke="#323232"/>
<path d="M286.768 218.178C288.829 218.178 290.657 219.293 291.953 221.021C293.249 222.748 294.035 225.112 294.035 227.702C294.035 230.291 293.249 232.655 291.953 234.382C290.657 236.11 288.829 237.225 286.768 237.225C284.706 237.225 282.878 236.11 281.582 234.382C280.286 232.655 279.5 230.291 279.5 227.702C279.5 225.112 280.286 222.748 281.582 221.021C282.878 219.293 284.706 218.178 286.768 218.178Z" fill="#323232" stroke="#323232" stroke-linecap="round"/>
<circle cx="289.616" cy="225.487" r="2" fill="white"/>
<path d="M242 260.5C245 264.167 252.8 269.3 260 260.5" stroke="#323232" stroke-width="4" stroke-linecap="round" stroke-linejoin="round"/>
<g filter="url(#filter0_f_2213_1757)">
<ellipse cx="210.5" cy="255.5" rx="9.5" ry="5.5" fill="#FC9D80"/>
</g>
<g filter="url(#filter1_f_2213_1757)">
<ellipse cx="289.5" cy="255.5" rx="9.5" ry="5.5" fill="#FC9D80"/>
</g>
<path d="M269 163C247.149 205.401 228.635 214.262 181.5 218.5C179.5 150.5 187.661 140.804 258.5 130C316.144 149.221 316.119 167.113 317.5 218.5C282.932 208.649 281.344 194.803 269 163Z" fill="#323232"/>
<defs>
<filter id="filter0_f_2213_1757" x="189" y="238" width="43" height="35" filterUnits="userSpaceOnUse" color-interpolation-filters="sRGB">
<feFlood flood-opacity="0" result="BackgroundImageFix"/>
<feBlend mode="normal" in="SourceGraphic" in2="BackgroundImageFix" result="shape"/>
<feGaussianBlur stdDeviation="6" result="effect1_foregroundBlur_2213_1757"/>
</filter>
<filter id="filter1_f_2213_1757" x="268" y="238" width="43" height="35" filterUnits="userSpaceOnUse" color-interpolation-filters="sRGB">
<feFlood flood-opacity="0" result="BackgroundImageFix"/>
<feBlend mode="normal" in="SourceGraphic" in2="BackgroundImageFix" result="shape"/>
<feGaussianBlur stdDeviation="6" result="effect1_foregroundBlur_2213_1757"/>
</filter>
</defs>
</svg>
