<svg width="500" height="500" viewBox="0 0 500 500" fill="none" xmlns="http://www.w3.org/2000/svg">
<rect x="216" y="240" width="68.2139" height="128.131" rx="13.7769" fill="white" stroke="#323232" stroke-width="4" stroke-linecap="round"/>
<path d="M217.896 322.634V281.678H286.5C281.333 302.68 250.523 323.768 217.896 322.634Z" fill="#7E7E7E" fill-opacity="0.45"/>
<path d="M185 211.678C198.45 211.678 209 221.489 209 233.178C209 244.866 198.45 254.678 185 254.678C171.55 254.678 161 244.866 161 233.178C161 221.489 171.55 211.678 185 211.678Z" fill="white" stroke="#323232" stroke-width="4"/>
<path d="M316 211.678C302.55 211.678 292 221.489 292 233.178C292 244.866 302.55 254.678 316 254.678C329.45 254.678 340 244.866 340 233.178C340 221.489 329.45 211.678 316 211.678Z" fill="white" stroke="#323232" stroke-width="4"/>
<path d="M251.03 161.5C272.621 161.5 289.032 166.726 300.047 177.235C311.045 187.729 317 203.812 317 226.262C317 248.713 311.042 265.834 299.985 277.337C288.941 288.828 272.532 295 251.03 295C229.527 295 212.842 288.826 201.528 277.32C190.211 265.81 184 248.69 184 226.262C184 203.836 190.207 187.753 201.467 177.251C212.752 166.726 229.439 161.5 251.03 161.5Z" fill="white" stroke="#323232" stroke-width="4" stroke-linecap="round"/>
<path d="M251 242C249.029 248.812 248 252.371 248 259.458C250.64 260.72 253.163 261.036 257.5 261" stroke="#323232" stroke-width="4" stroke-linecap="round" stroke-linejoin="round"/>
<path d="M215.768 236.178C217.829 236.178 219.657 237.293 220.953 239.021C222.249 240.748 223.035 243.112 223.035 245.702C223.035 248.291 222.249 250.655 220.953 252.382C219.657 254.11 217.829 255.225 215.768 255.225C213.706 255.225 211.878 254.11 210.582 252.382C209.286 250.655 208.5 248.291 208.5 245.702C208.5 243.112 209.286 240.748 210.582 239.021C211.878 237.293 213.706 236.178 215.768 236.178Z" fill="#323232" stroke="#323232" stroke-linecap="round"/>
<circle cx="218.616" cy="243.487" r="2.5" fill="white" stroke="#323232"/>
<path d="M287.768 236.178C289.829 236.178 291.657 237.293 292.953 239.021C294.249 240.748 295.035 243.112 295.035 245.702C295.035 248.291 294.249 250.655 292.953 252.382C291.657 254.11 289.829 255.225 287.768 255.225C285.706 255.225 283.878 254.11 282.582 252.382C281.286 250.655 280.5 248.291 280.5 245.702C280.5 243.112 281.286 240.748 282.582 239.021C283.878 237.293 285.706 236.178 287.768 236.178Z" fill="#323232" stroke="#323232" stroke-linecap="round"/>
<circle cx="290.616" cy="243.487" r="2" fill="white"/>
<path d="M244 272.678C247 276.345 254.8 281.478 262 272.678" stroke="#323232" stroke-width="4" stroke-linecap="round" stroke-linejoin="round"/>
<g filter="url(#filter0_f_2213_1482)">
<ellipse cx="211.5" cy="266.5" rx="9.5" ry="5.5" fill="#FC9D80"/>
</g>
<g filter="url(#filter1_f_2213_1482)">
<ellipse cx="290.5" cy="266.5" rx="9.5" ry="5.5" fill="#FC9D80"/>
</g>
<path d="M171.5 188C168.141 218.005 184 238.5 187 241C187 241 190.23 214.457 202.787 193.5C241.245 207.347 257.078 207.798 295.5 193.5C302 204.5 310.5 220.5 314.257 241C320.5 238.5 330.398 192.445 327 171C323.602 149.555 307.142 151.115 307.142 151.115C307.142 151.115 319 140.471 314.257 129.827C309.513 119.182 286.982 129.827 286.982 129.827C286.982 129.827 297.655 114.452 279.867 109.721C262.079 104.99 240.734 125.096 240.734 125.096C240.734 125.096 249.035 109.721 233.619 109.721C218.203 109.721 202.787 140.471 202.787 140.471C202.787 140.471 199.115 128.404 192 135.5C184.885 142.596 188.557 167.673 188.557 167.673C188.557 167.673 174.859 157.995 171.5 188Z" fill="#323232"/>
<defs>
<filter id="filter0_f_2213_1482" x="190" y="249" width="43" height="35" filterUnits="userSpaceOnUse" color-interpolation-filters="sRGB">
<feFlood flood-opacity="0" result="BackgroundImageFix"/>
<feBlend mode="normal" in="SourceGraphic" in2="BackgroundImageFix" result="shape"/>
<feGaussianBlur stdDeviation="6" result="effect1_foregroundBlur_2213_1482"/>
</filter>
<filter id="filter1_f_2213_1482" x="269" y="249" width="43" height="35" filterUnits="userSpaceOnUse" color-interpolation-filters="sRGB">
<feFlood flood-opacity="0" result="BackgroundImageFix"/>
<feBlend mode="normal" in="SourceGraphic" in2="BackgroundImageFix" result="shape"/>
<feGaussianBlur stdDeviation="6" result="effect1_foregroundBlur_2213_1482"/>
</filter>
</defs>
</svg>
