<svg width="500" height="500" viewBox="0 0 500 500" fill="none" xmlns="http://www.w3.org/2000/svg">
<path d="M162 201C162 152.399 201.399 113 250 113V113C298.601 113 338 152.399 338 201V298C338 313.464 325.464 326 310 326H190C174.536 326 162 313.464 162 298V201Z" fill="#323232"/>
<path d="M183 215C196.45 215 207 224.811 207 236.5C207 248.189 196.45 258 183 258C169.55 258 159 248.189 159 236.5C159 224.811 169.55 215 183 215Z" fill="white" stroke="#323232" stroke-width="4"/>
<path d="M318 215C304.55 215 294 224.811 294 236.5C294 248.189 304.55 258 318 258C331.45 258 342 248.189 342 236.5C342 224.811 331.45 215 318 215Z" fill="white" stroke="#323232" stroke-width="4"/>
<rect x="216" y="240" width="68.2139" height="128.131" rx="13.7769" fill="white" stroke="#323232" stroke-width="4" stroke-linecap="round"/>
<path d="M217.896 322.634V281.678H286.5C281.333 302.68 250.523 323.768 217.896 322.634Z" fill="#7E7E7E" fill-opacity="0.45"/>
<path d="M182 215C195.45 215 206 224.811 206 236.5C206 248.189 195.45 258 182 258C168.55 258 158 248.189 158 236.5C158 224.811 168.55 215 182 215Z" fill="white" stroke="#323232" stroke-width="4"/>
<path d="M317 215C303.55 215 293 224.811 293 236.5C293 248.189 303.55 258 317 258C330.45 258 341 248.189 341 236.5C341 224.811 330.45 215 317 215Z" fill="white" stroke="#323232" stroke-width="4"/>
<path d="M250.03 133C271.043 133 287.473 144.893 298.74 162.611C310.026 180.358 316 203.787 316 226.262C316 248.713 310.042 265.834 298.985 277.337C287.941 288.828 271.532 295 250.03 295C228.527 295 211.842 288.826 200.528 277.32C189.211 265.81 183 248.69 183 226.262C183 203.804 189.232 180.379 200.779 162.629C212.311 144.903 229.009 133 250.03 133Z" fill="white" stroke="#323232" stroke-width="4" stroke-linecap="round"/>
<path d="M250 225C248.029 231.812 247 235.371 247 242.458C249.64 243.72 252.163 244.036 256.5 244" stroke="#323232" stroke-width="4" stroke-linecap="round" stroke-linejoin="round"/>
<path d="M214.768 217.178C216.829 217.178 218.657 218.293 219.953 220.021C221.249 221.748 222.035 224.112 222.035 226.702C222.035 229.291 221.249 231.655 219.953 233.382C218.657 235.11 216.829 236.225 214.768 236.225C212.706 236.225 210.878 235.11 209.582 233.382C208.286 231.655 207.5 229.291 207.5 226.702C207.5 224.112 208.286 221.748 209.582 220.021C210.878 218.293 212.706 217.178 214.768 217.178Z" fill="#323232" stroke="#323232" stroke-linecap="round"/>
<circle cx="217.616" cy="224.487" r="2.5" fill="white" stroke="#323232"/>
<path d="M286.768 217.178C288.829 217.178 290.657 218.293 291.953 220.021C293.249 221.748 294.035 224.112 294.035 226.702C294.035 229.291 293.249 231.655 291.953 233.382C290.657 235.11 288.829 236.225 286.768 236.225C284.706 236.225 282.878 235.11 281.582 233.382C280.286 231.655 279.5 229.291 279.5 226.702C279.5 224.112 280.286 221.748 281.582 220.021C282.878 218.293 284.706 217.178 286.768 217.178Z" fill="#323232" stroke="#323232" stroke-linecap="round"/>
<circle cx="289.616" cy="224.487" r="2" fill="white"/>
<path d="M242 259.5C245 263.167 252.8 268.3 260 259.5" stroke="#323232" stroke-width="4" stroke-linecap="round" stroke-linejoin="round"/>
<g filter="url(#filter0_f_2213_1529)">
<ellipse cx="210.5" cy="254.5" rx="9.5" ry="5.5" fill="#FC9D80"/>
</g>
<g filter="url(#filter1_f_2213_1529)">
<ellipse cx="289.5" cy="254.5" rx="9.5" ry="5.5" fill="#FC9D80"/>
</g>
<path d="M314.451 178.5C318.669 174.087 318.877 169.101 318.877 163.886C318.877 145.171 288.469 130 250.959 130C213.449 130 183.041 145.171 183.041 163.886C183.041 169.661 185.937 175.099 191.043 179.858C184.516 182.728 180 188.91 180 196.075C180 205.974 188.623 214 199.26 214C204.612 214 209.455 211.968 212.945 208.688C216.436 211.968 221.278 214 226.63 214C231.982 214 236.825 211.968 240.315 208.688C243.806 211.968 248.648 214 254 214C259.352 214 264.194 211.968 267.685 208.688C271.175 211.968 276.018 214 281.37 214C286.722 214 291.564 211.968 295.055 208.688C298.545 211.968 303.388 214 308.74 214C319.377 214 328 205.974 328 196.075C328 187.306 323.388 180.053 314.451 178.5Z" fill="#323232"/>
<defs>
<filter id="filter0_f_2213_1529" x="189" y="237" width="43" height="35" filterUnits="userSpaceOnUse" color-interpolation-filters="sRGB">
<feFlood flood-opacity="0" result="BackgroundImageFix"/>
<feBlend mode="normal" in="SourceGraphic" in2="BackgroundImageFix" result="shape"/>
<feGaussianBlur stdDeviation="6" result="effect1_foregroundBlur_2213_1529"/>
</filter>
<filter id="filter1_f_2213_1529" x="268" y="237" width="43" height="35" filterUnits="userSpaceOnUse" color-interpolation-filters="sRGB">
<feFlood flood-opacity="0" result="BackgroundImageFix"/>
<feBlend mode="normal" in="SourceGraphic" in2="BackgroundImageFix" result="shape"/>
<feGaussianBlur stdDeviation="6" result="effect1_foregroundBlur_2213_1529"/>
</filter>
</defs>
</svg>
