<svg width="500" height="500" viewBox="0 0 500 500" fill="none" xmlns="http://www.w3.org/2000/svg">
<path d="M373.812 321C380.439 321 385.832 315.626 385.617 309.002C384.796 283.686 381.38 258.755 375.497 235.279C368.688 208.102 358.707 183.408 346.125 162.608C333.542 141.808 318.605 125.308 302.165 114.051C285.726 102.794 268.106 97 250.312 97C232.518 97 214.898 102.794 198.458 114.051C182.018 125.308 167.081 141.808 154.499 162.608C141.916 183.408 131.936 208.102 125.126 235.279C119.244 258.755 115.828 283.686 115.006 309.002C114.791 315.626 120.184 321 126.812 321L373.812 321Z" fill="#323232"/>
<rect x="216" y="240" width="68.2139" height="128.131" rx="13.7769" fill="white" stroke="#323232" stroke-width="4" stroke-linecap="round"/>
<path d="M217.896 322.634V281.678H286.5C281.333 302.68 250.523 323.768 217.896 322.634Z" fill="#7E7E7E" fill-opacity="0.45"/>
<path d="M183 216C196.45 216 207 225.811 207 237.5C207 249.189 196.45 259 183 259C169.55 259 159 249.189 159 237.5C159 225.811 169.55 216 183 216Z" fill="white" stroke="#323232" stroke-width="4"/>
<path d="M318 216C304.55 216 294 225.811 294 237.5C294 249.189 304.55 259 318 259C331.45 259 342 249.189 342 237.5C342 225.811 331.45 216 318 216Z" fill="white" stroke="#323232" stroke-width="4"/>
<path d="M251.03 134C272.043 134 288.473 145.893 299.74 163.611C311.026 181.358 317 204.787 317 227.262C317 249.713 311.042 266.834 299.985 278.337C288.941 289.828 272.532 296 251.03 296C229.527 296 212.842 289.826 201.528 278.32C190.211 266.81 184 249.69 184 227.262C184 204.804 190.232 181.379 201.779 163.629C213.311 145.903 230.009 134 251.03 134Z" fill="white" stroke="#323232" stroke-width="4" stroke-linecap="round"/>
<path d="M251 226C249.029 232.812 248 236.371 248 243.458C250.64 244.72 253.163 245.036 257.5 245" stroke="#323232" stroke-width="4" stroke-linecap="round" stroke-linejoin="round"/>
<path d="M215.768 218.178C217.829 218.178 219.657 219.293 220.953 221.021C222.249 222.748 223.035 225.112 223.035 227.702C223.035 230.291 222.249 232.655 220.953 234.382C219.657 236.11 217.829 237.225 215.768 237.225C213.706 237.225 211.878 236.11 210.582 234.382C209.286 232.655 208.5 230.291 208.5 227.702C208.5 225.112 209.286 222.748 210.582 221.021C211.878 219.293 213.706 218.178 215.768 218.178Z" fill="#323232" stroke="#323232" stroke-linecap="round"/>
<circle cx="218.616" cy="225.487" r="2.5" fill="white" stroke="#323232"/>
<path d="M287.768 218.178C289.829 218.178 291.657 219.293 292.953 221.021C294.249 222.748 295.035 225.112 295.035 227.702C295.035 230.291 294.249 232.655 292.953 234.382C291.657 236.11 289.829 237.225 287.768 237.225C285.706 237.225 283.878 236.11 282.582 234.382C281.286 232.655 280.5 230.291 280.5 227.702C280.5 225.112 281.286 222.748 282.582 221.021C283.878 219.293 285.706 218.178 287.768 218.178Z" fill="#323232" stroke="#323232" stroke-linecap="round"/>
<circle cx="290.616" cy="225.487" r="2" fill="white"/>
<path d="M243 260.5C246 264.167 253.8 269.3 261 260.5" stroke="#323232" stroke-width="4" stroke-linecap="round" stroke-linejoin="round"/>
<g filter="url(#filter0_f_2213_1602)">
<ellipse cx="211.5" cy="255.5" rx="9.5" ry="5.5" fill="#FC9D80"/>
</g>
<g filter="url(#filter1_f_2213_1602)">
<ellipse cx="290.5" cy="255.5" rx="9.5" ry="5.5" fill="#FC9D80"/>
</g>
<path d="M267 161C245.149 203.401 227.136 212.762 180 217C170.5 152.5 185.661 138.804 256.5 128C314.144 147.221 315.619 165.613 317 217C282.433 207.149 279.344 192.803 267 161Z" fill="#323232"/>
<defs>
<filter id="filter0_f_2213_1602" x="190" y="238" width="43" height="35" filterUnits="userSpaceOnUse" color-interpolation-filters="sRGB">
<feFlood flood-opacity="0" result="BackgroundImageFix"/>
<feBlend mode="normal" in="SourceGraphic" in2="BackgroundImageFix" result="shape"/>
<feGaussianBlur stdDeviation="6" result="effect1_foregroundBlur_2213_1602"/>
</filter>
<filter id="filter1_f_2213_1602" x="269" y="238" width="43" height="35" filterUnits="userSpaceOnUse" color-interpolation-filters="sRGB">
<feFlood flood-opacity="0" result="BackgroundImageFix"/>
<feBlend mode="normal" in="SourceGraphic" in2="BackgroundImageFix" result="shape"/>
<feGaussianBlur stdDeviation="6" result="effect1_foregroundBlur_2213_1602"/>
</filter>
</defs>
</svg>
