<svg width="500" height="500" viewBox="0 0 500 500" fill="none" xmlns="http://www.w3.org/2000/svg">
<rect x="216" y="240" width="68.2139" height="128.131" rx="13.7769" fill="white" stroke="#323232" stroke-width="4" stroke-linecap="round"/>
<path d="M217.896 322.634V281.678H286.5C281.333 302.68 250.524 323.768 217.896 322.634Z" fill="#7E7E7E" fill-opacity="0.45"/>
<path d="M183 215C196.45 215 207 224.811 207 236.5C207 248.189 196.45 258 183 258C169.55 258 159 248.189 159 236.5C159 224.811 169.55 215 183 215Z" fill="white" stroke="#323232" stroke-width="4"/>
<path d="M318 215C304.55 215 294 224.811 294 236.5C294 248.189 304.55 258 318 258C331.45 258 342 248.189 342 236.5C342 224.811 331.45 215 318 215Z" fill="white" stroke="#323232" stroke-width="4"/>
<path d="M251.03 133C272.043 133 288.473 144.893 299.74 162.611C311.026 180.358 317 203.787 317 226.262C317 248.713 311.042 265.834 299.985 277.337C288.941 288.828 272.532 295 251.03 295C229.527 295 212.842 288.826 201.528 277.32C190.211 265.81 184 248.69 184 226.262C184 203.804 190.232 180.379 201.779 162.629C213.311 144.903 230.009 133 251.03 133Z" fill="white" stroke="#323232" stroke-width="4" stroke-linecap="round"/>
<path d="M251 225C249.029 231.812 248 235.371 248 242.458C250.64 243.72 253.163 244.036 257.5 244" stroke="#323232" stroke-width="4" stroke-linecap="round" stroke-linejoin="round"/>
<path d="M215.768 217.178C217.829 217.178 219.657 218.293 220.953 220.021C222.249 221.748 223.035 224.112 223.035 226.702C223.035 229.291 222.249 231.655 220.953 233.382C219.657 235.11 217.829 236.225 215.768 236.225C213.706 236.225 211.878 235.11 210.582 233.382C209.286 231.655 208.5 229.291 208.5 226.702C208.5 224.112 209.286 221.748 210.582 220.021C211.878 218.293 213.706 217.178 215.768 217.178Z" fill="#323232" stroke="#323232" stroke-linecap="round"/>
<circle cx="218.616" cy="224.487" r="2.5" fill="white" stroke="#323232"/>
<path d="M287.768 217.178C289.829 217.178 291.657 218.293 292.953 220.021C294.249 221.748 295.035 224.112 295.035 226.702C295.035 229.291 294.249 231.655 292.953 233.382C291.657 235.11 289.829 236.225 287.768 236.225C285.706 236.225 283.878 235.11 282.582 233.382C281.286 231.655 280.5 229.291 280.5 226.702C280.5 224.112 281.286 221.748 282.582 220.021C283.878 218.293 285.706 217.178 287.768 217.178Z" fill="#323232" stroke="#323232" stroke-linecap="round"/>
<circle cx="290.616" cy="224.487" r="2" fill="white"/>
<path d="M243 259.5C246 263.167 253.8 268.3 261 259.5" stroke="#323232" stroke-width="4" stroke-linecap="round" stroke-linejoin="round"/>
<g filter="url(#filter0_f_2213_1986)">
<ellipse cx="211.5" cy="254.5" rx="9.5" ry="5.5" fill="#FC9D80"/>
</g>
<g filter="url(#filter1_f_2213_1986)">
<ellipse cx="290.5" cy="254.5" rx="9.5" ry="5.5" fill="#FC9D80"/>
</g>
<path d="M268 157C246.149 199.401 228.136 208.762 181 213C171.5 148.5 186.661 134.804 257.5 124C315.144 143.221 316.619 161.613 318 213C283.433 203.149 280.344 188.803 268 157Z" fill="#323232"/>
<path d="M252.376 101C309.261 101 355.376 148.86 355.376 219C355.376 289.14 309.261 346 252.376 346C195.491 346 149.376 289.14 149.376 219C149.376 148.86 195.491 101 252.376 101ZM250.376 147C213.373 147 183.376 179.012 183.376 218.5C183.376 257.988 213.373 290 250.376 290C287.379 290 317.376 257.988 317.376 218.5C317.376 179.012 287.379 147 250.376 147Z" fill="#323232"/>
<g filter="url(#filter2_d_2213_1986)">
<path d="M185.931 290C171.63 290 160.036 304.327 160.036 322.001C160.036 324.868 160.344 327.657 160.922 330.315C156.231 336.769 148.084 340.5 149.084 355.5C150.084 370.5 181.584 423.554 205.584 427C263.982 435.386 262.56 395.958 311.084 388C325.605 385.619 352.084 373.102 352.084 355C352.084 344.612 345.908 335.396 340.324 328.683C340.645 326.654 340.813 324.562 340.813 322.429C340.813 304.519 329.065 290 314.572 290H185.931Z" fill="#323232"/>
</g>
<defs>
<filter id="filter0_f_2213_1986" x="190" y="237" width="43" height="35" filterUnits="userSpaceOnUse" color-interpolation-filters="sRGB">
<feFlood flood-opacity="0" result="BackgroundImageFix"/>
<feBlend mode="normal" in="SourceGraphic" in2="BackgroundImageFix" result="shape"/>
<feGaussianBlur stdDeviation="6" result="effect1_foregroundBlur_2213_1986"/>
</filter>
<filter id="filter1_f_2213_1986" x="269" y="237" width="43" height="35" filterUnits="userSpaceOnUse" color-interpolation-filters="sRGB">
<feFlood flood-opacity="0" result="BackgroundImageFix"/>
<feBlend mode="normal" in="SourceGraphic" in2="BackgroundImageFix" result="shape"/>
<feGaussianBlur stdDeviation="6" result="effect1_foregroundBlur_2213_1986"/>
</filter>
<filter id="filter2_d_2213_1986" x="137" y="280" width="227.084" height="162.164" filterUnits="userSpaceOnUse" color-interpolation-filters="sRGB">
<feFlood flood-opacity="0" result="BackgroundImageFix"/>
<feColorMatrix in="SourceAlpha" type="matrix" values="0 0 0 0 0 0 0 0 0 0 0 0 0 0 0 0 0 0 127 0" result="hardAlpha"/>
<feOffset dy="2"/>
<feGaussianBlur stdDeviation="6"/>
<feColorMatrix type="matrix" values="0 0 0 0 0.0784314 0 0 0 0 0.137255 0 0 0 0 0.490196 0 0 0 0.16 0"/>
<feBlend mode="normal" in2="BackgroundImageFix" result="effect1_dropShadow_2213_1986"/>
<feBlend mode="normal" in="SourceGraphic" in2="effect1_dropShadow_2213_1986" result="shape"/>
</filter>
</defs>
</svg>
