<svg width="500" height="500" viewBox="0 0 500 500" fill="none" xmlns="http://www.w3.org/2000/svg">
<path d="M256.035 96C316.335 96 355.162 142.212 355.162 204.822C355.162 227.248 350.835 246.386 342.698 262.171C352.334 268.404 358.289 279.627 357.216 291.854C357.191 292.137 357.163 292.42 357.131 292.7C369.449 296.921 377.786 309.112 376.597 322.666C376.274 326.345 375.276 329.803 373.738 332.929L389.939 339.127C397.097 341.865 398.642 351.307 392.729 356.183L368.438 376.208C362.524 381.083 353.55 377.767 352.227 370.219L348.528 349.12C347.422 349.15 346.302 349.12 345.173 349.021C330.148 347.702 318.811 335.149 318.709 320.365C309.429 318.412 301.76 312.497 297.362 304.599C287.689 309.01 276.933 312.257 265.195 314.322C245.323 317.819 224.723 313.558 206.388 303.826C202.869 314.021 194.304 322.047 183.374 324.574C183.566 339.357 172.481 352.134 157.484 353.75C153.902 354.136 150.402 353.851 147.108 352.998L143.567 375.869C142.394 383.443 133.488 386.936 127.479 382.18L102.795 362.64C96.7864 357.883 98.1424 348.413 105.244 345.533L127.742 336.409C126.62 333.806 125.864 330.992 125.544 328.025C124.086 314.497 132.179 302.141 144.411 297.677C144.374 297.397 144.34 297.117 144.31 296.835C142.772 282.57 150.859 269.485 163.358 264.053C153.074 247.956 146.854 229.181 146.854 209.366C146.854 146.756 195.736 96 256.035 96Z" fill="#323232"/>
<path d="M359.498 338.875L348.761 341.138C346.58 341.597 345.644 344.189 347.027 345.935L353.457 354.056C354.841 355.803 357.578 355.486 358.525 353.469L363.188 343.536L373.926 341.274C376.107 340.814 377.043 338.222 375.66 336.476L369.229 328.355C367.846 326.608 365.109 326.925 364.162 328.942L359.498 338.875Z" fill="white" fill-opacity="0.4"/>
<path d="M135.847 346.64C135.873 346.711 135.901 346.781 135.933 346.851L139.735 355.307C140.641 357.323 143.342 357.7 144.766 356.009L149.944 349.859C151.367 348.169 150.536 345.571 148.395 345.021L139.415 342.715C139.341 342.696 139.267 342.68 139.194 342.666C139.168 342.596 139.139 342.526 139.108 342.456L135.306 334C134.4 331.984 131.699 331.607 130.275 333.298L125.097 339.447C123.673 341.138 124.505 343.735 126.645 344.285L135.625 346.592C135.7 346.611 135.774 346.627 135.847 346.64Z" fill="white" fill-opacity="0.4"/>
<rect x="216" y="240" width="68.2139" height="128.131" rx="13.7769" fill="white" stroke="#323232" stroke-width="4" stroke-linecap="round"/>
<path d="M217.896 322.634V281.678H286.5C281.333 302.68 250.523 323.768 217.896 322.634Z" fill="#7E7E7E" fill-opacity="0.45"/>
<path d="M183 214C196.45 214 207 223.811 207 235.5C207 247.189 196.45 257 183 257C169.55 257 159 247.189 159 235.5C159 223.811 169.55 214 183 214Z" fill="white" stroke="#323232" stroke-width="4"/>
<path d="M318 214C304.55 214 294 223.811 294 235.5C294 247.189 304.55 257 318 257C331.45 257 342 247.189 342 235.5C342 223.811 331.45 214 318 214Z" fill="white" stroke="#323232" stroke-width="4"/>
<path d="M251.03 132C272.043 132 288.473 143.893 299.74 161.611C311.026 179.358 317 202.787 317 225.262C317 247.713 311.042 264.834 299.985 276.337C288.941 287.828 272.532 294 251.03 294C229.527 294 212.842 287.826 201.528 276.32C190.211 264.81 184 247.69 184 225.262C184 202.804 190.232 179.379 201.779 161.629C213.311 143.903 230.009 132 251.03 132Z" fill="white" stroke="#323232" stroke-width="4" stroke-linecap="round"/>
<path d="M251 229C249.029 235.812 248 239.371 248 246.458C250.64 247.72 253.163 248.036 257.5 248" stroke="#323232" stroke-width="4" stroke-linecap="round" stroke-linejoin="round"/>
<path d="M215.768 216.178C217.829 216.178 219.657 217.293 220.953 219.021C222.249 220.748 223.035 223.112 223.035 225.702C223.035 228.291 222.249 230.655 220.953 232.382C219.657 234.11 217.829 235.225 215.768 235.225C213.706 235.225 211.878 234.11 210.582 232.382C209.286 230.655 208.5 228.291 208.5 225.702C208.5 223.112 209.286 220.748 210.582 219.021C211.878 217.293 213.706 216.178 215.768 216.178Z" fill="#323232" stroke="#323232" stroke-linecap="round"/>
<circle cx="218.616" cy="223.487" r="2.5" fill="white" stroke="#323232"/>
<path d="M287.768 216.178C289.829 216.178 291.657 217.293 292.953 219.021C294.249 220.748 295.035 223.112 295.035 225.702C295.035 228.291 294.249 230.655 292.953 232.382C291.657 234.11 289.829 235.225 287.768 235.225C285.706 235.225 283.878 234.11 282.582 232.382C281.286 230.655 280.5 228.291 280.5 225.702C280.5 223.112 281.286 220.748 282.582 219.021C283.878 217.293 285.706 216.178 287.768 216.178Z" fill="#323232" stroke="#323232" stroke-linecap="round"/>
<circle cx="290.616" cy="223.487" r="2" fill="white"/>
<path d="M243 263.5C246 267.167 253.8 272.3 261 263.5" stroke="#323232" stroke-width="4" stroke-linecap="round" stroke-linejoin="round"/>
<g filter="url(#filter0_f_2213_1812)">
<ellipse cx="211.5" cy="253.5" rx="9.5" ry="5.5" fill="#FC9D80"/>
</g>
<g filter="url(#filter1_f_2213_1812)">
<ellipse cx="290.5" cy="253.5" rx="9.5" ry="5.5" fill="#FC9D80"/>
</g>
<path d="M283.838 169.678C255.838 209.678 230.136 212.762 183 217C191.748 155.794 187.5 134 259.5 131C317 134.5 315.619 165.613 317 217C299.838 207.678 296.182 201.481 283.838 169.678Z" fill="#323232"/>
<defs>
<filter id="filter0_f_2213_1812" x="190" y="236" width="43" height="35" filterUnits="userSpaceOnUse" color-interpolation-filters="sRGB">
<feFlood flood-opacity="0" result="BackgroundImageFix"/>
<feBlend mode="normal" in="SourceGraphic" in2="BackgroundImageFix" result="shape"/>
<feGaussianBlur stdDeviation="6" result="effect1_foregroundBlur_2213_1812"/>
</filter>
<filter id="filter1_f_2213_1812" x="269" y="236" width="43" height="35" filterUnits="userSpaceOnUse" color-interpolation-filters="sRGB">
<feFlood flood-opacity="0" result="BackgroundImageFix"/>
<feBlend mode="normal" in="SourceGraphic" in2="BackgroundImageFix" result="shape"/>
<feGaussianBlur stdDeviation="6" result="effect1_foregroundBlur_2213_1812"/>
</filter>
</defs>
</svg>
