<svg width="500" height="500" viewBox="0 0 500 500" fill="none" xmlns="http://www.w3.org/2000/svg">
<path d="M249.846 88C289.683 88.0001 319.6 110.597 333.991 145.596C364.491 153.427 389 178.274 389 210.5C389 221.938 385.698 233.168 380.05 243.34C400.354 259.978 412.715 283.333 412.016 308.875C410.685 357.458 377.358 399.96 319.39 398.373C294.705 397.697 269.535 389.133 248.869 375.773C227.886 389.484 202.07 398 176.995 398C120.386 398 89 354.601 89 306C89 284.886 97.6616 265.51 112.1 250.346C105.751 239.654 102 227.694 102 215.5C102 183.043 126.862 158.07 157.666 150.43C174.641 113.401 209.544 88 249.846 88Z" fill="#323232"/>
<rect x="216" y="240" width="68.2139" height="128.131" rx="13.7769" fill="white" stroke="#323232" stroke-width="4" stroke-linecap="round"/>
<path d="M217.896 322.634V281.678H286.5C281.333 302.68 250.523 323.768 217.896 322.634Z" fill="#7E7E7E" fill-opacity="0.45"/>
<path d="M183 208C196.45 208 207 217.811 207 229.5C207 241.189 196.45 251 183 251C169.55 251 159 241.189 159 229.5C159 217.811 169.55 208 183 208Z" fill="white" stroke="#323232" stroke-width="4"/>
<path d="M318 208C304.55 208 294 217.811 294 229.5C294 241.189 304.55 251 318 251C331.45 251 342 241.189 342 229.5C342 217.811 331.45 208 318 208Z" fill="white" stroke="#323232" stroke-width="4"/>
<path d="M251.03 126C272.043 126 288.473 137.893 299.74 155.611C311.026 173.358 317 196.787 317 219.262C317 241.713 311.042 258.834 299.985 270.337C288.941 281.828 272.532 288 251.03 288C229.527 288 212.842 281.826 201.528 270.32C190.211 258.81 184 241.69 184 219.262C184 196.804 190.232 173.379 201.779 155.629C213.311 137.903 230.009 126 251.03 126Z" fill="white" stroke="#323232" stroke-width="4" stroke-linecap="round"/>
<path d="M251 218C249.029 224.812 248 228.371 248 235.458C250.64 236.72 253.163 237.036 257.5 237" stroke="#323232" stroke-width="4" stroke-linecap="round" stroke-linejoin="round"/>
<path d="M215.768 210.178C217.829 210.178 219.657 211.293 220.953 213.021C222.249 214.748 223.035 217.112 223.035 219.702C223.035 222.291 222.249 224.655 220.953 226.382C219.657 228.11 217.829 229.225 215.768 229.225C213.706 229.225 211.878 228.11 210.582 226.382C209.286 224.655 208.5 222.291 208.5 219.702C208.5 217.112 209.286 214.748 210.582 213.021C211.878 211.293 213.706 210.178 215.768 210.178Z" fill="#323232" stroke="#323232" stroke-linecap="round"/>
<circle cx="218.616" cy="217.487" r="2.5" fill="white" stroke="#323232"/>
<path d="M287.768 210.178C289.829 210.178 291.657 211.293 292.953 213.021C294.249 214.748 295.035 217.112 295.035 219.702C295.035 222.291 294.249 224.655 292.953 226.382C291.657 228.11 289.829 229.225 287.768 229.225C285.706 229.225 283.878 228.11 282.582 226.382C281.286 224.655 280.5 222.291 280.5 219.702C280.5 217.112 281.286 214.748 282.582 213.021C283.878 211.293 285.706 210.178 287.768 210.178Z" fill="#323232" stroke="#323232" stroke-linecap="round"/>
<circle cx="290.616" cy="217.487" r="2" fill="white"/>
<path d="M243 252.5C246 256.167 253.8 261.3 261 252.5" stroke="#323232" stroke-width="4" stroke-linecap="round" stroke-linejoin="round"/>
<g filter="url(#filter0_f_2213_1703)">
<ellipse cx="211.5" cy="247.5" rx="9.5" ry="5.5" fill="#FC9D80"/>
</g>
<g filter="url(#filter1_f_2213_1703)">
<ellipse cx="290.5" cy="247.5" rx="9.5" ry="5.5" fill="#FC9D80"/>
</g>
<path d="M265 150C243.149 192.401 225.136 201.762 178 206C168.5 141.5 183.661 127.804 254.5 117C312.144 136.221 313.619 154.613 315 206C280.433 196.149 277.344 181.803 265 150Z" fill="#323232"/>
<defs>
<filter id="filter0_f_2213_1703" x="190" y="230" width="43" height="35" filterUnits="userSpaceOnUse" color-interpolation-filters="sRGB">
<feFlood flood-opacity="0" result="BackgroundImageFix"/>
<feBlend mode="normal" in="SourceGraphic" in2="BackgroundImageFix" result="shape"/>
<feGaussianBlur stdDeviation="6" result="effect1_foregroundBlur_2213_1703"/>
</filter>
<filter id="filter1_f_2213_1703" x="269" y="230" width="43" height="35" filterUnits="userSpaceOnUse" color-interpolation-filters="sRGB">
<feFlood flood-opacity="0" result="BackgroundImageFix"/>
<feBlend mode="normal" in="SourceGraphic" in2="BackgroundImageFix" result="shape"/>
<feGaussianBlur stdDeviation="6" result="effect1_foregroundBlur_2213_1703"/>
</filter>
</defs>
</svg>
