<svg width="500" height="500" viewBox="0 0 500 500" fill="none" xmlns="http://www.w3.org/2000/svg">
<path d="M239.609 226.611C248.886 222.905 253.929 222.813 262.609 226.611" stroke="#323232" stroke-width="4" stroke-linecap="round"/>
<path d="M193 221.799L185.109 214.135" stroke="#323232" stroke-width="4"/>
<path d="M307.049 217.439L315.609 213.635" stroke="#323232" stroke-width="4"/>
<path d="M213.656 204.041C215.044 203.942 216.418 203.955 217.769 204.071L221.355 207.657L191.657 237.355L190.256 235.954C190.094 235.312 189.956 234.658 189.843 233.994C189.509 232.031 189.409 230.081 189.524 228.173L213.656 204.041Z" fill="white" fill-opacity="0.15"/>
<path d="M211.44 206.321C224.49 204.101 236.813 212.77 239.001 225.631C241.189 238.493 232.426 250.749 219.376 252.969C206.326 255.189 194.003 246.521 191.814 233.659C189.626 220.797 198.39 208.541 211.44 206.321Z" fill="url(#paint0_linear_2213_2620)" fill-opacity="0.3" stroke="#323232" stroke-width="4"/>
<path d="M312.441 224.743C312.476 224.926 312.511 225.11 312.542 225.295C312.847 227.086 312.955 228.866 312.884 230.613L288.219 255.278C285.274 255.431 282.395 255.085 279.679 254.303L278.78 253.404L309.941 222.243L312.441 224.743Z" fill="white" fill-opacity="0.15"/>
<path d="M283.01 206.321C296.06 204.101 308.383 212.77 310.571 225.631C312.759 238.493 303.996 250.749 290.946 252.969C277.896 255.189 265.573 246.521 263.385 233.659C261.196 220.797 269.96 208.541 283.01 206.321Z" fill="url(#paint1_linear_2213_2620)" fill-opacity="0.3" stroke="#323232" stroke-width="4"/>
<defs>
<linearGradient id="paint0_linear_2213_2620" x1="211.104" y1="204.349" x2="235.109" y2="253.635" gradientUnits="userSpaceOnUse">
<stop stop-color="white"/>
<stop offset="1" stop-color="#C0C8FE" stop-opacity="0"/>
</linearGradient>
<linearGradient id="paint1_linear_2213_2620" x1="282.674" y1="204.349" x2="306.679" y2="253.635" gradientUnits="userSpaceOnUse">
<stop stop-color="white"/>
<stop offset="1" stop-color="#C0C8FE" stop-opacity="0"/>
</linearGradient>
</defs>
</svg>
