<svg width="500" height="500" viewBox="0 0 500 500" fill="none" xmlns="http://www.w3.org/2000/svg">
<path d="M215.181 323.032C215.638 322.821 216.303 322.989 216.637 323.566C232.781 351.54 271.874 349.35 284.064 323.821C284.396 323.127 285.144 322.922 285.623 323.139C312.581 335.357 330.284 348.353 342.373 365.32C354.476 382.307 361.102 403.482 365.512 432.355C365.604 432.958 365.132 433.5 364.537 433.5H134.471C133.878 433.5 133.405 432.956 133.5 432.354C138.263 402.036 146.098 380.611 158.931 363.852C171.765 347.091 189.747 334.803 215.181 323.032Z" fill="white" stroke="#323232" stroke-width="4" stroke-linecap="round" stroke-linejoin="round"/>
<path d="M216.5 324C220.893 366.359 221.947 391.359 217 432.5" stroke="#323232" stroke-width="4"/>
<path d="M285.776 324.5C281.384 366.859 280.329 391.859 285.276 433" stroke="#323232" stroke-width="4"/>
<path fill-rule="evenodd" clip-rule="evenodd" d="M322.966 376.402C321.246 371.199 313.754 371.199 312.034 376.402L311.371 378.407C310.601 380.734 308.394 382.309 305.905 382.309H303.758C298.191 382.309 295.876 389.309 300.38 392.524L302.116 393.764C304.131 395.202 304.974 397.751 304.204 400.077L303.541 402.083C301.821 407.285 307.881 411.611 312.386 408.396L314.122 407.157C316.136 405.719 318.864 405.719 320.878 407.157L322.614 408.396C327.119 411.611 333.179 407.285 331.459 402.083L330.796 400.077C330.026 397.751 330.869 395.202 332.884 393.764L334.62 392.524C339.124 389.309 336.809 382.309 331.242 382.309H329.095C326.606 382.309 324.399 380.734 323.629 378.407L322.966 376.402ZM317.5 397.99C320.674 397.99 323.247 395.461 323.247 392.343C323.247 389.224 320.674 386.696 317.5 386.696C314.326 386.696 311.753 389.224 311.753 392.343C311.753 395.461 314.326 397.99 317.5 397.99Z" fill="#323232"/>
</svg>
