<svg width="500" height="500" viewBox="0 0 500 500" fill="none" xmlns="http://www.w3.org/2000/svg">
<path d="M215.181 323.032C215.638 322.821 216.303 322.989 216.637 323.566C232.781 351.54 271.874 349.35 284.064 323.821C284.396 323.127 285.144 322.922 285.623 323.139C312.581 335.357 330.284 348.353 342.373 365.32C354.476 382.307 361.102 403.482 365.512 432.355C365.604 432.958 365.132 433.5 364.537 433.5H134.471C133.878 433.5 133.405 432.956 133.5 432.354C138.263 402.036 146.098 380.611 158.931 363.852C171.765 347.091 189.747 334.803 215.181 323.032Z" fill="white" stroke="#323232" stroke-width="4" stroke-linecap="round" stroke-linejoin="round"/>
<path d="M207 381H296V330.314C304.292 334.502 308.661 337.366 316 342.304V381L316.412 381.01C320.639 381.225 324 384.72 324 389V431.5H176V389C176 384.582 179.582 381 184 381H187V340.743C194.48 335.735 198.887 333.372 207 329.168V381Z" fill="#323232"/>
<path d="M316 431.5V396C316 391.582 312.418 388 308 388H192C187.582 388 184 391.582 184 396V431.5" stroke="white" stroke-width="0.5" stroke-linecap="round" stroke-dasharray="4 4"/>
<line x1="193.5" y1="380.5" x2="193.5" y2="340.5" stroke="white" stroke-linecap="round" stroke-dasharray="4 4"/>
<line x1="309.5" y1="380.5" x2="309.5" y2="340.5" stroke="white" stroke-linecap="round" stroke-dasharray="4 4"/>
<circle cx="194" cy="387" r="6" fill="white"/>
<circle cx="308" cy="387" r="6" fill="white"/>
<path d="M212 413C212 406.925 216.925 402 223 402H276C282.075 402 287 406.925 287 413V432H212V413Z" fill="white" fill-opacity="0.5"/>
</svg>
