<svg width="500" height="500" viewBox="0 0 500 500" fill="none" xmlns="http://www.w3.org/2000/svg">
<path d="M215.181 323.032C215.638 322.821 216.303 322.989 216.637 323.566C232.781 351.54 271.874 349.35 284.064 323.821C284.396 323.127 285.144 322.922 285.623 323.139C312.581 335.357 330.284 348.353 342.373 365.32C354.476 382.307 361.102 403.482 365.512 432.355C365.604 432.958 365.132 433.5 364.537 433.5H134.471C133.878 433.5 133.405 432.956 133.5 432.354C138.263 402.036 146.098 380.611 158.931 363.852C171.765 347.091 189.747 334.803 215.181 323.032Z" fill="white" stroke="#323232" stroke-width="4" stroke-linecap="round" stroke-linejoin="round"/>
<path d="M214 323.5L215.436 367.052C215.463 367.866 216.399 368.308 217.045 367.812L248 344" stroke="#323232" stroke-width="4" stroke-linecap="round"/>
<path d="M286 323.5L284.564 367.052C284.537 367.866 283.601 368.308 282.955 367.812L252 344" stroke="#323232" stroke-width="4" stroke-linecap="round"/>
<line x1="250" y1="344.477" x2="251.011" y2="431.477" stroke="#323232" stroke-width="4"/>
<circle cx="264" cy="379.5" r="6" fill="#323232"/>
<circle cx="264" cy="409.5" r="6" fill="#323232"/>
</svg>
