<svg width="500" height="500" viewBox="0 0 500 500" fill="none" xmlns="http://www.w3.org/2000/svg">
<path d="M215.181 323.032C215.638 322.821 216.303 322.989 216.637 323.566C232.781 351.54 271.874 349.35 284.064 323.821C284.396 323.127 285.144 322.922 285.623 323.139C312.581 335.357 330.284 348.353 342.373 365.32C354.476 382.307 361.102 403.482 365.512 432.355C365.604 432.958 365.132 433.5 364.537 433.5H134.471C133.878 433.5 133.405 432.956 133.5 432.354C138.263 402.036 146.098 380.611 158.931 363.852C171.765 347.091 189.747 334.803 215.181 323.032Z" fill="white" stroke="#323232" stroke-width="4" stroke-linecap="round" stroke-linejoin="round"/>
<path d="M188.838 337.178L188.838 396.178" stroke="#323232" stroke-width="4"/>
<path d="M203.838 330.178L203.838 389.178" stroke="#323232" stroke-width="4"/>
<line x1="308.838" y1="335.178" x2="308.838" y2="396.178" stroke="#323232" stroke-width="4"/>
<line x1="293.838" y1="327.178" x2="293.838" y2="388.178" stroke="#323232" stroke-width="4"/>
<path d="M186.838 379.178H311.838C317.361 379.178 321.838 383.655 321.838 389.178V433.178H176.838V389.178C176.838 383.655 181.315 379.178 186.838 379.178Z" fill="white" stroke="#323232" stroke-width="4"/>
<circle cx="194.792" cy="394.647" r="9" fill="#323232"/>
<circle cx="300.792" cy="394.647" r="9" fill="#323232"/>
</svg>
