<svg width="500" height="500" viewBox="0 0 500 500" fill="none" xmlns="http://www.w3.org/2000/svg">
<path d="M215.954 336.675C216.301 336.515 216.828 336.553 217.272 336.913C225.401 343.496 238.844 346.123 251.479 345.92C257.851 345.818 264.146 344.995 269.641 343.526C275.102 342.067 279.93 339.927 283.231 337.086C283.767 336.626 284.375 336.576 284.744 336.742C312.051 349.01 329.96 362.029 342.176 379.045C354.404 396.078 361.078 417.325 365.512 446.355C365.604 446.958 365.132 447.5 364.537 447.5H134.471C133.878 447.5 133.405 446.956 133.5 446.354C138.288 415.882 146.177 394.394 159.126 377.597C172.077 360.797 190.24 348.495 215.954 336.675Z" fill="white" stroke="#323232" stroke-width="4" stroke-linecap="round" stroke-linejoin="round"/>
<path d="M214.5 320L249.5 338.5L286 320V338.5L257 353.199V449.5H242V353.036L214.5 338.5V320Z" fill="#323232"/>
</svg>
