<svg width="500" height="500" viewBox="0 0 500 500" fill="none" xmlns="http://www.w3.org/2000/svg">
<path d="M215.181 323.032C215.638 322.821 216.303 322.989 216.637 323.566C232.781 351.54 271.874 349.35 284.064 323.821C284.396 323.127 285.144 322.922 285.623 323.139C312.581 335.357 330.284 348.353 342.373 365.32C354.476 382.307 361.102 403.482 365.512 432.355C365.604 432.958 365.132 433.5 364.537 433.5H134.471C133.878 433.5 133.405 432.956 133.5 432.354C138.263 402.036 146.098 380.611 158.931 363.852C171.765 347.091 189.747 334.803 215.181 323.032Z" fill="white" stroke="#323232" stroke-width="4" stroke-linecap="round" stroke-linejoin="round"/>
<path d="M216 323.678C216 323.678 187.338 356.678 212.338 370.178C237.338 383.678 251.5 343.678 251.5 343.678" stroke="#323232" stroke-width="4" stroke-linecap="round" stroke-linejoin="round"/>
<path d="M286.338 326.178C286.338 326.178 315 359.178 290 372.678C265 386.178 250.838 346.178 250.838 346.178" stroke="#323232" stroke-width="4" stroke-linecap="round" stroke-linejoin="round"/>
</svg>
