<svg width="500" height="500" viewBox="0 0 500 500" fill="none" xmlns="http://www.w3.org/2000/svg">
<path d="M215.181 323.032C215.638 322.821 216.303 322.989 216.637 323.566C232.781 351.54 271.874 349.35 284.064 323.821C284.396 323.127 285.144 322.922 285.623 323.139C312.581 335.357 330.284 348.353 342.373 365.32C354.476 382.307 361.102 403.482 365.512 432.355C365.604 432.958 365.132 433.5 364.537 433.5H134.471C133.878 433.5 133.405 432.956 133.5 432.354C138.263 402.036 146.098 380.611 158.931 363.852C171.765 347.091 189.747 334.803 215.181 323.032Z" fill="white" stroke="#323232" stroke-width="4" stroke-linecap="round" stroke-linejoin="round"/>
<path d="M183.5 341.678L211.815 381.709C212.173 382.215 212.9 382.277 213.339 381.839L249.763 345.414C250.165 345.013 250.821 345.026 251.206 345.444L284.701 381.811C285.12 382.265 285.845 382.235 286.225 381.748L317.5 341.678" stroke="#323232" stroke-width="4" stroke-linecap="round" stroke-linejoin="round"/>
<circle cx="251.5" cy="377.678" r="9.5" fill="#323232"/>
<circle cx="251.5" cy="404.678" r="9.5" fill="#323232"/>
</svg>
