<svg width="500" height="500" viewBox="0 0 500 500" fill="none" xmlns="http://www.w3.org/2000/svg">
<path d="M215.181 323.032C215.638 322.821 216.303 322.989 216.637 323.566C232.781 351.54 271.874 349.35 284.064 323.821C284.396 323.127 285.144 322.922 285.623 323.139C312.581 335.357 330.284 348.353 342.373 365.32C354.476 382.307 361.102 403.482 365.512 432.355C365.604 432.958 365.132 433.5 364.537 433.5H134.471C133.878 433.5 133.405 432.956 133.5 432.354C138.263 402.036 146.098 380.611 158.931 363.852C171.765 347.091 189.747 334.803 215.181 323.032Z" fill="white" stroke="#323232" stroke-width="4" stroke-linecap="round" stroke-linejoin="round"/>
<path d="M346.963 367.906C349.482 370.879 351 374.72 351 378.913C351 388.35 343.312 396 333.829 396C329.171 396 324.947 394.155 321.854 391.158C318.76 394.155 314.536 396 309.878 396C305.22 396 300.996 394.155 297.902 391.158C294.809 394.155 290.584 396 285.927 396C281.269 396 277.044 394.155 273.951 391.158C270.858 394.155 266.633 396 261.975 396C257.318 396 253.093 394.155 250 391.158C246.907 394.155 242.682 396 238.024 396C233.367 396 229.142 394.155 226.049 391.158C222.955 394.155 218.731 396 214.073 396C209.415 396 205.191 394.155 202.098 391.158C199.004 394.155 194.78 396 190.122 396C185.464 396 181.24 394.155 178.146 391.158C175.053 394.155 170.829 396 166.171 396C156.688 396 149 388.35 149 378.913C149 374.511 150.672 370.499 153.419 367.469C169.939 347.64 187.777 332.056 214.073 324C237.452 353 268.07 352.5 287.292 324C320.236 336.351 335.495 350.77 346.963 367.906Z" fill="#323232" fill-opacity="0.3"/>
<path d="M343.522 357.906C345.946 360.88 347.407 364.72 347.407 368.913C347.407 378.35 340.008 386 330.882 386C326.399 386 322.333 384.155 319.356 381.158C316.379 384.155 312.313 386 307.831 386C303.348 386 299.282 384.155 296.305 381.158C293.328 384.155 289.262 386 284.78 386C280.297 386 276.231 384.155 273.254 381.158C270.277 384.155 266.211 386 261.729 386C257.246 386 253.18 384.155 250.203 381.159C247.226 384.155 243.161 386 238.678 386C234.195 386 230.13 384.155 227.153 381.159C224.175 384.155 220.11 386 215.627 386C211.144 386 207.079 384.155 204.102 381.159C201.125 384.155 197.059 386 192.576 386C188.094 386 184.028 384.155 181.051 381.159C178.074 384.155 174.008 386 169.525 386C160.399 386 153 378.35 153 368.913C153 364.512 154.61 360.499 157.253 357.47C173.152 337.64 191.193 328.556 216.5 320.5C239.551 349 264.5 348.5 283 320C314.705 332.351 332.485 340.77 343.522 357.906Z" fill="#323232"/>
</svg>
